<?xml version="1.0" encoding="UTF-8" standalone="no"?><svg xmlns="http://www.w3.org/2000/svg" xmlns:xlink="http://www.w3.org/1999/xlink" contentScriptType="application/ecmascript" contentStyleType="text/css" height="484px" preserveAspectRatio="none" style="width:925px;height:484px;" version="1.1" viewBox="0 0 925 484" width="925px" zoomAndPan="magnify"><defs><filter height="300%" id="f194k2msjgziu1" width="300%" x="-1" y="-1"><feGaussianBlur result="blurOut" stdDeviation="2.0"/><feColorMatrix in="blurOut" result="blurOut2" type="matrix" values="0 0 0 0 0 0 0 0 0 0 0 0 0 0 0 0 0 0 .4 0"/><feOffset dx="4.0" dy="4.0" in="blurOut2" result="blurOut3"/><feBlend in="SourceGraphic" in2="blurOut3" mode="normal"/></filter></defs><g><rect fill="#FFFFFF" filter="url(#f194k2msjgziu1)" height="253.6481" style="stroke: #A80036; stroke-width: 1.0;" width="10" x="278.5" y="122.7739"/><rect fill="#FFFFFF" filter="url(#f194k2msjgziu1)" height="190.2361" style="stroke: #A80036; stroke-width: 1.0;" width="10" x="418.5" y="154.4799"/><rect fill="#FFFFFF" filter="url(#f194k2msjgziu1)" height="158.5301" style="stroke: #A80036; stroke-width: 1.0;" width="10" x="564.5" y="186.186"/><rect fill="#FFFFFF" filter="url(#f194k2msjgziu1)" height="95.118" style="stroke: #A80036; stroke-width: 1.0;" width="10" x="704.5" y="217.892"/><rect fill="#FFFFFF" filter="url(#f194k2msjgziu1)" height="31.706" style="stroke: #A80036; stroke-width: 1.0;" width="10" x="872.5" y="249.598"/><line style="stroke: #A80036; stroke-width: 1.0; stroke-dasharray: 5.0,5.0;" x1="30" x2="30" y1="89.0679" y2="394.4221"/><line style="stroke: #A80036; stroke-width: 1.0; stroke-dasharray: 5.0,5.0;" x1="283" x2="283" y1="89.0679" y2="394.4221"/><line style="stroke: #A80036; stroke-width: 1.0; stroke-dasharray: 5.0,5.0;" x1="423" x2="423" y1="89.0679" y2="394.4221"/><line style="stroke: #A80036; stroke-width: 1.0; stroke-dasharray: 5.0,5.0;" x1="569" x2="569" y1="89.0679" y2="394.4221"/><line style="stroke: #A80036; stroke-width: 1.0; stroke-dasharray: 5.0,5.0;" x1="709" x2="709" y1="89.0679" y2="394.4221"/><line style="stroke: #A80036; stroke-width: 1.0; stroke-dasharray: 5.0,5.0;" x1="877" x2="877" y1="89.0679" y2="394.4221"/><text fill="#000000" font-family="sans-serif" font-size="14" lengthAdjust="spacingAndGlyphs" textLength="39" x="8" y="84.9659">Client</text><ellipse cx="30.5" cy="13" fill="#FEFECE" filter="url(#f194k2msjgziu1)" rx="8" ry="8" style="stroke: #A80036; stroke-width: 2.0;"/><path d="M30.5,21 L30.5,48 M17.5,29 L43.5,29 M30.5,48 L17.5,63 M30.5,48 L43.5,63 " fill="none" filter="url(#f194k2msjgziu1)" style="stroke: #A80036; stroke-width: 2.0;"/><text fill="#000000" font-family="sans-serif" font-size="14" lengthAdjust="spacingAndGlyphs" textLength="39" x="8" y="408.388">Client</text><ellipse cx="30.5" cy="422.49" fill="#FEFECE" filter="url(#f194k2msjgziu1)" rx="8" ry="8" style="stroke: #A80036; stroke-width: 2.0;"/><path d="M30.5,430.49 L30.5,457.49 M17.5,438.49 L43.5,438.49 M30.5,457.49 L17.5,472.49 M30.5,457.49 L43.5,472.49 " fill="none" filter="url(#f194k2msjgziu1)" style="stroke: #A80036; stroke-width: 2.0;"/><rect fill="#FEFECE" filter="url(#f194k2msjgziu1)" height="33.0679" style="stroke: #A80036; stroke-width: 1.5;" width="65" x="249" y="51"/><text fill="#000000" font-family="sans-serif" font-size="14" lengthAdjust="spacingAndGlyphs" textLength="51" x="256" y="72.9659">Uvicorn</text><rect fill="#FEFECE" filter="url(#f194k2msjgziu1)" height="33.0679" style="stroke: #A80036; stroke-width: 1.5;" width="65" x="249" y="393.4221"/><text fill="#000000" font-family="sans-serif" font-size="14" lengthAdjust="spacingAndGlyphs" textLength="51" x="256" y="415.388">Uvicorn</text><rect fill="#FEFECE" filter="url(#f194k2msjgziu1)" height="33.0679" style="stroke: #A80036; stroke-width: 1.5;" width="71" x="386" y="51"/><text fill="#000000" font-family="sans-serif" font-size="14" lengthAdjust="spacingAndGlyphs" textLength="57" x="393" y="72.9659">Starlette</text><rect fill="#FEFECE" filter="url(#f194k2msjgziu1)" height="33.0679" style="stroke: #A80036; stroke-width: 1.5;" width="71" x="386" y="393.4221"/><text fill="#000000" font-family="sans-serif" font-size="14" lengthAdjust="spacingAndGlyphs" textLength="57" x="393" y="415.388">Starlette</text><rect fill="#FEFECE" filter="url(#f194k2msjgziu1)" height="33.0679" style="stroke: #A80036; stroke-width: 1.5;" width="93" x="521" y="51"/><text fill="#000000" font-family="sans-serif" font-size="14" lengthAdjust="spacingAndGlyphs" textLength="79" x="528" y="72.9659">FastAPI app</text><rect fill="#FEFECE" filter="url(#f194k2msjgziu1)" height="33.0679" style="stroke: #A80036; stroke-width: 1.5;" width="93" x="521" y="393.4221"/><text fill="#000000" font-family="sans-serif" font-size="14" lengthAdjust="spacingAndGlyphs" textLength="79" x="528" y="415.388">FastAPI app</text><rect fill="#FEFECE" filter="url(#f194k2msjgziu1)" height="33.0679" style="stroke: #A80036; stroke-width: 1.5;" width="101" x="657" y="51"/><text fill="#000000" font-family="sans-serif" font-size="14" lengthAdjust="spacingAndGlyphs" textLength="87" x="664" y="72.9659">TicketService</text><rect fill="#FEFECE" filter="url(#f194k2msjgziu1)" height="33.0679" style="stroke: #A80036; stroke-width: 1.5;" width="101" x="657" y="393.4221"/><text fill="#000000" font-family="sans-serif" font-size="14" lengthAdjust="spacingAndGlyphs" textLength="87" x="664" y="415.388">TicketService</text><rect fill="#FEFECE" filter="url(#f194k2msjgziu1)" height="33.0679" style="stroke: #A80036; stroke-width: 1.5;" width="77" x="837" y="51"/><text fill="#000000" font-family="sans-serif" font-size="14" lengthAdjust="spacingAndGlyphs" textLength="63" x="844" y="72.9659">Database</text><rect fill="#FEFECE" filter="url(#f194k2msjgziu1)" height="33.0679" style="stroke: #A80036; stroke-width: 1.5;" width="77" x="837" y="393.4221"/><text fill="#000000" font-family="sans-serif" font-size="14" lengthAdjust="spacingAndGlyphs" textLength="63" x="844" y="415.388">Database</text><rect fill="#FFFFFF" filter="url(#f194k2msjgziu1)" height="253.6481" style="stroke: #A80036; stroke-width: 1.0;" width="10" x="278.5" y="122.7739"/><rect fill="#FFFFFF" filter="url(#f194k2msjgziu1)" height="190.2361" style="stroke: #A80036; stroke-width: 1.0;" width="10" x="418.5" y="154.4799"/><rect fill="#FFFFFF" filter="url(#f194k2msjgziu1)" height="158.5301" style="stroke: #A80036; stroke-width: 1.0;" width="10" x="564.5" y="186.186"/><rect fill="#FFFFFF" filter="url(#f194k2msjgziu1)" height="95.118" style="stroke: #A80036; stroke-width: 1.0;" width="10" x="704.5" y="217.892"/><rect fill="#FFFFFF" filter="url(#f194k2msjgziu1)" height="31.706" style="stroke: #A80036; stroke-width: 1.0;" width="10" x="872.5" y="249.598"/><polygon fill="#A80036" points="266.5,118.7739,276.5,122.7739,266.5,126.7739,270.5,122.7739" style="stroke: #A80036; stroke-width: 1.0;"/><line style="stroke: #A80036; stroke-width: 1.0;" x1="30.5" x2="272.5" y1="122.7739" y2="122.7739"/><text fill="#000000" font-family="sans-serif" font-size="13" lengthAdjust="spacingAndGlyphs" textLength="229" x="37.5" y="116.9649">HTTP POST /create_ticket + JSON Body</text><polygon fill="#A80036" points="406.5,150.4799,416.5,154.4799,406.5,158.4799,410.5,154.4799" style="stroke: #A80036; stroke-width: 1.0;"/><line style="stroke: #A80036; stroke-width: 1.0;" x1="288.5" x2="412.5" y1="154.4799" y2="154.4799"/><text fill="#000000" font-family="sans-serif" font-size="13" lengthAdjust="spacingAndGlyphs" textLength="111" x="295.5" y="148.6709">ASGI receive scope</text><polygon fill="#A80036" points="552.5,182.186,562.5,186.186,552.5,190.186,556.5,186.186" style="stroke: #A80036; stroke-width: 1.0;"/><line style="stroke: #A80036; stroke-width: 1.0;" x1="428.5" x2="558.5" y1="186.186" y2="186.186"/><text fill="#000000" font-family="sans-serif" font-size="13" lengthAdjust="spacingAndGlyphs" textLength="117" x="435.5" y="180.377">route /create_ticket</text><polygon fill="#A80036" points="692.5,213.892,702.5,217.892,692.5,221.892,696.5,217.892" style="stroke: #A80036; stroke-width: 1.0;"/><line style="stroke: #A80036; stroke-width: 1.0;" x1="574.5" x2="698.5" y1="217.892" y2="217.892"/><text fill="#000000" font-family="sans-serif" font-size="13" lengthAdjust="spacingAndGlyphs" textLength="111" x="581.5" y="212.083">create_ticket(data)</text><polygon fill="#A80036" points="860.5,245.598,870.5,249.598,860.5,253.598,864.5,249.598" style="stroke: #A80036; stroke-width: 1.0;"/><line style="stroke: #A80036; stroke-width: 1.0;" x1="714.5" x2="866.5" y1="249.598" y2="249.598"/><text fill="#000000" font-family="sans-serif" font-size="13" lengthAdjust="spacingAndGlyphs" textLength="139" x="721.5" y="243.789">INSERT INTO tickets (...)</text><polygon fill="#A80036" points="725.5,277.304,715.5,281.304,725.5,285.304,721.5,281.304" style="stroke: #A80036; stroke-width: 1.0;"/><line style="stroke: #A80036; stroke-width: 1.0; stroke-dasharray: 2.0,2.0;" x1="719.5" x2="876.5" y1="281.304" y2="281.304"/><text fill="#000000" font-family="sans-serif" font-size="13" lengthAdjust="spacingAndGlyphs" textLength="82" x="731.5" y="275.495">Ticket(id=987)</text><polygon fill="#A80036" points="585.5,309.01,575.5,313.01,585.5,317.01,581.5,313.01" style="stroke: #A80036; stroke-width: 1.0;"/><line style="stroke: #A80036; stroke-width: 1.0; stroke-dasharray: 2.0,2.0;" x1="579.5" x2="708.5" y1="313.01" y2="313.01"/><text fill="#000000" font-family="sans-serif" font-size="13" lengthAdjust="spacingAndGlyphs" textLength="70" x="591.5" y="307.201">Ticket(data)</text><polygon fill="#A80036" points="299.5,340.716,289.5,344.716,299.5,348.716,295.5,344.716" style="stroke: #A80036; stroke-width: 1.0;"/><line style="stroke: #A80036; stroke-width: 1.0;" x1="293.5" x2="568.5" y1="344.716" y2="344.716"/><text fill="#000000" font-family="sans-serif" font-size="13" lengthAdjust="spacingAndGlyphs" textLength="136" x="305.5" y="338.907">HTTP 201 {ticket JSON}</text><polygon fill="#A80036" points="41.5,372.4221,31.5,376.4221,41.5,380.4221,37.5,376.4221" style="stroke: #A80036; stroke-width: 1.0;"/><line style="stroke: #A80036; stroke-width: 1.0; stroke-dasharray: 2.0,2.0;" x1="35.5" x2="282.5" y1="376.4221" y2="376.4221"/><text fill="#000000" font-family="sans-serif" font-size="13" lengthAdjust="spacingAndGlyphs" textLength="118" x="47.5" y="370.6131">ASGI send response</text><!--MD5=[bdec94bbf4377589b65fc5b3a62470b2]
@startuml
actor Client
participant Uvicorn
participant Starlette
participant FastAPIApp as "FastAPI app"
participant "TicketService" as Service
participant "Database" as DB

Client -> Uvicorn: HTTP POST /create_ticket + JSON Body
activate Uvicorn
Uvicorn -> Starlette: ASGI receive scope
activate Starlette
Starlette -> FastAPIApp: route /create_ticket
activate FastAPIApp
FastAPIApp -> Service: create_ticket(data)
activate Service
Service -> DB: INSERT INTO tickets (...) 
activate DB
DB - -> Service: Ticket(id=987)
deactivate DB
Service - -> FastAPIApp: Ticket(data)
deactivate Service
FastAPIApp -> Uvicorn: HTTP 201 {ticket JSON}
deactivate FastAPIApp
deactivate Starlette
Uvicorn - -> Client: ASGI send response
deactivate Uvicorn
@enduml

PlantUML version 1.2020.02(Sun Mar 01 11:22:07 CET 2020)
(GPL source distribution)
Java Runtime: OpenJDK Runtime Environment
JVM: OpenJDK 64-Bit Server VM
Java Version: 21.0.7+6-Ubuntu-0ubuntu124.04
Operating System: Linux
Default Encoding: UTF-8
Language: en
Country: null
--></g></svg>